<svg width="878" height="162" viewBox="0 0 878 162" fill="none" xmlns="http://www.w3.org/2000/svg">
<g clip-path="url(#clip0_17_66)">
<path fill-rule="evenodd" clip-rule="evenodd" d="M130 5.68898C83.8989 32.843 89.6139 30.784 78.7269 24.164C64.4829 15.504 48.2089 7.02398 43.9999 6.06898C27.2649 2.27398 10.5909 9.94999 3.29389 24.81L0.49989 30.5L0.204892 65.5C-0.0271078 92.952 0.188892 100.879 1.20489 102.257C1.91689 103.224 8.34089 107.337 15.4799 111.398C22.6189 115.459 28.9169 119.506 29.4749 120.391C31.2179 123.155 28.9349 125.165 14.9249 133.198C7.54089 137.432 1.36089 141.56 1.19189 142.37C0.995892 143.304 3.56189 145.378 8.19189 148.029C12.2109 150.331 19.2469 154.417 23.8259 157.107C29.0889 160.2 33.3249 162 35.3409 162C37.6299 162 45.2939 158.055 62.5139 148.014C75.7059 140.322 87.3449 134.022 88.3779 134.014C89.4099 134.006 97.7029 138.349 106.807 143.664C128.132 156.116 131.324 157.368 141.602 157.32C148.221 157.289 150.785 156.789 155.602 154.589C165.706 149.975 172.812 141.66 175.513 131.289C177.506 123.637 177.709 63.282 175.75 60.796C175.063 59.923 170.675 57.072 166 54.459C149.532 45.255 146.838 43.231 147.186 40.322C147.451 38.114 149.628 36.468 161 29.882C169.944 24.702 174.5 21.491 174.5 20.369C174.5 18.384 144.679 0.0459855 141.5 0.0749855C140.4 0.0849855 135.225 2.61198 130 5.68898ZM726.698 23.635C725.844 24.489 725.755 135.199 726.607 137.418C727.107 138.72 729.051 139 737.588 139C747.518 139 747.985 138.904 748.508 136.75C748.808 135.512 748.929 109.525 748.777 79L748.5 23.5L737.948 23.218C732.145 23.063 727.083 23.251 726.698 23.635ZM776.5 26.532C775.95 26.693 774.249 27.101 772.719 27.439C769.448 28.162 766.009 33.211 766.004 37.3C765.995 44.13 771.425 48.568 779.402 48.249C784.343 48.052 788.082 45.379 789.827 40.796C792.229 34.483 787.916 27.983 780.5 26.741C778.85 26.465 777.05 26.371 776.5 26.532ZM236.47 30.222C236.2 30.925 236.097 55.575 236.24 85L236.5 138.5H247.5H258.5L258.303 102.5L258.105 66.5L263.045 78.5C265.762 85.1 272.377 101.3 277.746 114.5L287.507 138.5L295.632 138.788C301.545 138.998 303.898 138.726 304.277 137.788C304.563 137.08 310.97 121.425 318.514 103C326.058 84.575 332.556 68.63 332.955 67.566C333.354 66.502 333.64 82.027 333.59 102.066L333.5 138.5L343.918 138.787C351.58 138.998 354.552 138.733 355.153 137.787C356.087 136.315 356.318 32.992 355.393 30.582C354.882 29.249 352.694 29 341.515 29C332.082 29 327.965 29.361 327.278 30.25C326.746 30.938 319.871 47.7 312.001 67.5C304.132 87.3 297.255 104.364 296.72 105.419C295.937 106.967 292.725 99.807 280.124 68.419L264.5 29.5L250.729 29.222C240.266 29.01 236.841 29.25 236.47 30.222ZM640 83.988V139H650.893C659.904 139 661.891 138.727 662.393 137.418C662.727 136.548 663 126.432 663 114.937V94.038L685.25 93.769L707.5 93.5L707.789 84.75L708.078 76H685.539H663V61.5V47H689.039H715.078L714.789 38.25L714.5 29.5L677.25 29.238L640 28.976V83.988ZM464.699 37.634C464.315 38.019 464 42.288 464 47.121V55.909L457.25 56.204L450.5 56.5V64.5V72.5L457.19 72.794L463.88 73.089L464.19 99.294C464.486 124.313 464.603 125.693 466.77 129.749C470.297 136.351 475.533 139.254 484.804 139.744C489.037 139.968 494.3 139.76 496.5 139.281L500.5 138.41V130.011V121.612L494.888 121.872C485.837 122.292 486 122.768 486 95.972V73.088L493.25 72.794L500.5 72.5V64.5V56.5L493.287 56.207L486.074 55.914L485.787 46.707L485.5 37.5L475.449 37.217C469.922 37.062 465.084 37.249 464.699 37.634ZM36.6979 43.636C36.3139 44.019 35.9999 60.368 35.9999 79.967C35.9999 116.365 36.1639 118 39.8059 118C42.1049 118 67.9929 102.882 69.0379 100.929C69.5669 99.94 69.9999 90.847 69.9999 80.721C69.9999 64.431 69.7979 62.135 68.2499 60.794C66.4559 59.24 41.2059 44.4 38.7559 43.46C38.0079 43.173 37.0819 43.252 36.6979 43.636ZM120.994 52.75L107.5 60.5L107.228 80.372C107.051 93.375 107.326 100.688 108.024 101.529C109.604 103.433 136.851 119.223 138.815 119.372C140.359 119.489 140.524 116.664 140.789 85.5C140.947 66.8 140.814 50.037 140.493 48.25C139.585 43.193 136.325 43.945 120.994 52.75ZM400.383 55.949C392.118 57.922 382.977 64.243 378.143 71.327C372.761 79.213 370.809 86.354 370.852 98C370.892 108.787 371.865 113.303 375.728 120.613C378.593 126.035 386.72 133.238 393.804 136.632C399.038 139.14 400.513 139.366 412 139.422C423.982 139.481 424.775 139.354 431.135 136.356C437.724 133.251 446 126.2 446 123.691C446 122.306 435.764 113 434.241 113C433.75 113 432.258 114.186 430.924 115.636C427.194 119.692 420.517 122.246 413.472 122.312C403.392 122.407 396.678 117.332 393.566 107.266L392.875 105.032L420.188 104.766L447.5 104.5L447.821 100.576C448.365 93.917 446.014 79.906 443.439 74.462C440.678 68.626 434.187 61.692 429 59.037C422.032 55.472 408.499 54.011 400.383 55.949ZM533.424 56.82C525.325 59.222 520.625 62.269 516.012 68.104C511.752 73.493 509.784 80.615 512.141 82.108C512.889 82.582 517.656 82.976 522.737 82.985L531.973 83L533.349 79.75C535.504 74.657 538.376 72.716 544.51 72.208C554.016 71.419 559 75.287 559 83.45V87L552.25 87.02C530.878 87.083 516.111 93.499 511.259 104.831C507.34 113.987 510.392 126.998 517.829 132.841C525.287 138.702 527.687 139.454 539 139.478C548.958 139.499 549.787 139.337 555.067 136.345L560.633 133.19L561.73 136.095L562.826 139H573.445C585.123 139 586 138.53 583.854 133.422C583.043 131.493 582.426 121.325 582.038 103.5C581.481 77.971 581.324 76.242 579.141 71.761C576.266 65.859 569.362 59.675 563.195 57.477C556.071 54.938 540.894 54.603 533.424 56.82ZM768.238 56.812C767.25 57.455 767.034 66.391 767.238 98.066L767.5 138.5H778H788.5V97.5V56.5L779 56.246C773.775 56.106 768.932 56.361 768.238 56.812ZM800.472 57.046C800.094 57.656 805.49 66.715 812.462 77.177C819.434 87.639 824.909 96.794 824.63 97.523C824.35 98.252 818.464 107.467 811.55 118.002C804.636 128.538 799.235 137.572 799.549 138.079C799.862 138.585 805.199 139 811.408 139H822.698L830.488 126.424C836.741 116.329 838.514 114.11 839.478 115.174C840.139 115.903 843.304 120.775 846.511 126C855.101 139.996 853.6 139 866.096 139C872.25 139 877.149 138.568 877.504 137.994C877.846 137.441 872.208 128.011 864.976 117.039C856.585 104.308 852.103 96.621 852.59 95.795C853.01 95.083 858.738 86.262 865.32 76.193C873.121 64.257 876.945 57.545 876.307 56.907C875.752 56.352 870.61 56.052 864.415 56.214L853.5 56.5L845.962 68.613L838.423 80.725L830.951 68.613L823.478 56.5L812.318 56.218C804.933 56.031 800.926 56.311 800.472 57.046ZM402.207 74.669C398.889 76.304 394 83.255 394 86.338C394 87.818 395.744 88 409.895 88H425.789L425.051 84.726C423.93 79.756 422.194 77.089 418.686 74.95C414.734 72.54 406.8 72.405 402.207 74.669ZM540.286 102.701C539.069 102.937 536.681 104.43 534.98 106.019C532.244 108.575 531.922 109.45 532.193 113.604C532.594 119.731 535.648 122.231 542.738 122.231C548.513 122.231 556.341 119.099 557.914 116.16C558.512 115.044 559 111.402 559 108.066V102L550.75 102.136C546.212 102.211 541.504 102.465 540.286 102.701Z" fill="white"/>
</g>
<defs>
<clipPath id="clip0_17_66">
<rect width="878" height="162" fill="white"/>
</clipPath>
</defs>
</svg>
