<svg
    width="177"
    height="162"
    viewBox="0 0 177 162"
    fill="none"
    xmlns="http://www.w3.org/2000/svg"
>
    <g clip-path="url(#clip0_17_68)">
        <path
            fill-rule="evenodd"
            clip-rule="evenodd"
            d="M129.88 5.61403C83.7788 32.768 89.4938 30.709 78.6068 24.089C64.3628 15.429 48.0888 6.94903 43.8798 5.99403C27.1448 2.19903 10.4708 9.87504 3.17377 24.735L0.379773 30.425L0.084775 65.425C-0.147225 92.877 0.0687751 100.804 1.08478 102.182C1.79678 103.149 8.22077 107.262 15.3598 111.323C22.4988 115.384 28.7968 119.431 29.3548 120.316C31.0978 123.08 28.8148 125.09 14.8048 133.123C7.42077 137.357 1.24077 141.485 1.07177 142.295C0.875775 143.229 3.44177 145.303 8.07177 147.954C12.0908 150.256 19.1268 154.342 23.7058 157.032C28.9688 160.125 33.2048 161.925 35.2208 161.925C37.5098 161.925 45.1738 157.98 62.3938 147.939C75.5858 140.247 87.2248 133.947 88.2578 133.939C89.2898 133.931 97.5828 138.274 106.687 143.589C128.012 156.041 131.204 157.293 141.482 157.245C148.101 157.214 150.665 156.714 155.482 154.514C165.586 149.9 172.692 141.585 175.393 131.214C177.386 123.562 177.589 63.207 175.63 60.721C174.943 59.848 170.555 56.997 165.88 54.384C149.412 45.18 146.718 43.156 147.066 40.247C147.331 38.039 149.508 36.393 160.88 29.807C169.824 24.627 174.38 21.416 174.38 20.294C174.38 18.309 144.559 -0.0289656 141.38 3.43586e-05C140.28 0.0100344 135.105 2.53703 129.88 5.61403ZM36.5778 43.561C36.1938 43.944 35.8798 60.293 35.8798 79.892C35.8798 116.29 36.0438 117.925 39.6858 117.925C41.9848 117.925 67.8728 102.807 68.9178 100.854C69.4468 99.865 69.8798 90.772 69.8798 80.646C69.8798 64.356 69.6778 62.06 68.1298 60.719C66.3358 59.165 41.0858 44.325 38.6358 43.385C37.8878 43.098 36.9618 43.177 36.5778 43.561ZM120.874 52.675L107.38 60.425L107.108 80.297C106.931 93.3 107.206 100.613 107.904 101.454C109.484 103.358 136.731 119.148 138.695 119.297C140.239 119.414 140.404 116.589 140.669 85.425C140.827 66.725 140.694 49.962 140.373 48.175C139.465 43.118 136.205 43.87 120.874 52.675Z"
            fill="black"
        />
    </g>
    <defs>
        <clipPath id="clip0_17_68">
            <rect width="176.998" height="161.925" fill="black" />
        </clipPath>
    </defs>
</svg>
