<svg width="330" height="60" viewBox="0 0 330 60" fill="none" xmlns="http://www.w3.org/2000/svg">
<g clip-path="url(#clip0_17_70)">
<path fill-rule="evenodd" clip-rule="evenodd" d="M252.396 0.242408C251.956 0.681594 251.911 57.6163 252.349 58.7574C252.606 59.427 253.607 59.571 257.999 59.571C263.109 59.571 263.349 59.5217 263.618 58.4139C263.772 57.7773 263.835 44.413 263.757 28.7149L263.614 0.172983L258.185 0.0279583C255.199 -0.0517534 252.594 0.044929 252.396 0.242408ZM278.021 1.73225C277.738 1.81504 276.863 2.02486 276.076 2.19869C274.393 2.5705 272.623 5.16705 272.621 7.26989C272.616 10.7823 275.41 13.0647 279.514 12.9006C282.057 12.7993 283.981 11.4247 284.879 9.06778C286.115 5.8212 283.895 2.47845 280.079 1.83973C279.23 1.69779 278.304 1.64945 278.021 1.73225ZM0.151504 3.6299C0.0125769 3.99143 -0.0404269 16.6682 0.0331531 31.8005L0.16694 59.3139H5.82694H11.4869L11.3856 40.8002L11.2837 22.2865L13.8255 28.4578C15.2236 31.8519 18.6273 40.1831 21.3899 46.9714L26.4123 59.3139L30.593 59.462C33.6355 59.57 34.8462 59.4301 35.0413 58.9477C35.1884 58.5836 38.4851 50.5327 42.3668 41.0573C46.2486 31.5819 49.5921 23.3819 49.7974 22.8347C50.0027 22.2876 50.1498 30.2716 50.1241 40.577L50.0778 59.3139L55.4383 59.4615C59.3808 59.57 60.91 59.4337 61.2193 58.9472C61.6998 58.1902 61.8187 5.05442 61.3427 3.81503C61.0798 3.12951 59.954 3.00146 54.2019 3.00146C49.3482 3.00146 47.2298 3.18711 46.8763 3.6443C46.6026 3.99811 43.0651 12.6183 39.0156 22.8008C34.9666 32.9833 31.4281 41.7588 31.1528 42.3014C30.7499 43.0975 29.0972 39.4153 22.6134 23.2734L14.5742 3.2586L7.4884 3.11563C2.10472 3.0066 0.3424 3.13003 0.151504 3.6299ZM207.786 31.2801V59.571H213.391C218.027 59.571 219.05 59.4306 219.308 58.7574C219.48 58.31 219.62 53.1077 219.62 47.1962V36.4485L231.069 36.3101L242.518 36.1718L242.666 31.6719L242.815 27.1721H231.218H219.62V19.7152V12.2583H233.019H246.417L246.268 7.75845L246.119 3.2586L226.953 3.12386L207.786 2.98912V31.2801ZM117.586 7.44166C117.388 7.63965 117.226 9.83506 117.226 12.3205V16.8399L113.753 16.9916L110.28 17.1439V21.258V25.3722L113.722 25.5233L117.164 25.6751L117.324 39.1515C117.476 52.018 117.536 52.7276 118.651 54.8135C120.466 58.2087 123.16 59.7016 127.931 59.9536C130.109 60.0688 132.817 59.9619 133.949 59.7155L136.007 59.2676V54.9483V50.6289L133.119 50.7626C128.462 50.9786 128.546 51.2234 128.546 37.4431V25.6745L132.276 25.5233L136.007 25.3722V21.258V17.1439L132.295 16.9932L128.584 16.8425L128.436 12.1076L128.289 7.37275L123.117 7.22721C120.273 7.1475 117.784 7.24366 117.586 7.44166ZM84.4921 16.8605C80.2394 17.8751 75.536 21.1258 73.0486 24.7689C70.2794 28.8244 69.275 32.4968 69.2971 38.486C69.3177 44.0334 69.8183 46.3559 71.806 50.1152C73.2802 52.9035 77.4619 56.6078 81.1069 58.3532C83.8001 59.643 84.559 59.7592 90.4696 59.788C96.6349 59.8184 97.0429 59.7531 100.315 58.2113C103.706 56.6145 107.964 52.9884 107.964 51.6981C107.964 50.9858 102.697 46.2 101.914 46.2C101.661 46.2 100.893 46.81 100.207 47.5556C98.2876 49.6415 94.852 50.955 91.227 50.9889C86.0404 51.0378 82.5857 48.4278 80.9845 43.2512L80.6289 42.1023L94.6827 41.9655L108.736 41.8288L108.901 39.8108C109.181 36.3862 107.971 29.1808 106.646 26.3811C105.226 23.3799 101.886 19.8139 99.2169 18.4486C95.6315 16.6152 88.6682 15.8638 84.4921 16.8605ZM152.948 17.3084C148.78 18.5437 146.362 20.1107 143.988 23.1114C141.797 25.8828 140.784 29.5454 141.997 30.3132C142.382 30.557 144.834 30.7596 147.449 30.7643L152.201 30.772L152.909 29.1006C154.018 26.4814 155.496 25.4832 158.652 25.222C163.543 24.8162 166.108 26.8054 166.108 31.0034V32.829L162.635 32.8393C151.638 32.8717 144.039 36.1713 141.543 41.999C139.526 46.7076 141.097 53.3988 144.923 56.4036C148.761 59.4178 149.996 59.8045 155.817 59.8168C160.941 59.8276 161.367 59.7443 164.084 58.2056L166.948 56.5831L167.512 58.0771L168.076 59.571H173.54C179.549 59.571 180 59.3293 178.896 56.7024C178.479 55.7104 178.161 50.4813 177.962 41.3145C177.675 28.1857 177.594 27.2965 176.471 24.9921C174.992 21.9569 171.439 18.7767 168.266 17.6463C164.601 16.3406 156.791 16.1683 152.948 17.3084ZM273.77 17.3043C273.262 17.635 273.151 22.2305 273.256 38.5199L273.39 59.3139H278.793H284.196V38.2289V17.1439L279.308 17.0132C276.619 16.9412 274.127 17.0724 273.77 17.3043ZM290.356 17.4246C290.161 17.7383 292.938 22.3971 296.525 27.7774C300.113 33.1577 302.93 37.8658 302.786 38.2407C302.642 38.6156 299.614 43.3546 296.056 48.7724C292.498 54.1907 289.719 58.8366 289.881 59.0974C290.042 59.3576 292.788 59.571 295.983 59.571H301.792L305.801 53.1036C309.018 47.912 309.93 46.7709 310.426 47.3181C310.766 47.693 312.395 50.1985 314.045 52.8855C318.465 60.0832 317.693 59.571 324.122 59.571C327.289 59.571 329.81 59.3489 329.992 59.0537C330.168 58.7693 327.267 53.9197 323.546 48.2772C319.229 41.73 316.922 37.7768 317.173 37.352C317.389 36.9859 320.336 32.4495 323.723 27.2713C327.737 21.133 329.705 17.6813 329.376 17.3532C329.091 17.0677 326.445 16.9135 323.257 16.9968L317.641 17.1439L313.763 23.3732L309.883 29.602L306.039 23.3732L302.194 17.1439L296.451 16.9988C292.651 16.9027 290.59 17.0467 290.356 17.4246ZM85.4307 26.4876C83.7234 27.3284 81.2078 30.9031 81.2078 32.4886C81.2078 33.2497 82.1051 33.3433 89.3865 33.3433H97.5647L97.1849 31.6596C96.6081 29.1037 95.7149 27.7321 93.9098 26.6321C91.8764 25.3927 87.794 25.3233 85.4307 26.4876ZM156.479 40.9036C155.852 41.0249 154.624 41.7928 153.748 42.6099C152.341 43.9244 152.175 44.3744 152.314 46.5107C152.521 49.6616 154.092 50.9473 157.74 50.9473C160.712 50.9473 164.74 49.3366 165.549 47.8251C165.857 47.2512 166.108 45.3782 166.108 43.6626V40.5431L161.863 40.613C159.528 40.6516 157.105 40.7822 156.479 40.9036Z" fill="white"/>
</g>
<defs>
<clipPath id="clip0_17_70">
<rect width="330" height="60" fill="white"/>
</clipPath>
</defs>
</svg>
