<?xml version="1.0" standalone="no"?>
<!DOCTYPE svg PUBLIC "-//W3C//DTD SVG 20010904//EN"
 "http://www.w3.org/TR/2001/REC-SVG-20010904/DTD/svg10.dtd">
<svg version="1.0" xmlns="http://www.w3.org/2000/svg"
 width="708.000000pt" height="708.000000pt" viewBox="0 0 708.000000 708.000000"
 preserveAspectRatio="xMidYMid meet">
<metadata>
Created by potrace 1.14, written by Peter Selinger 2001-2017
</metadata>
<g transform="translate(0.000000,708.000000) scale(0.100000,-0.100000)"
fill="#000000" stroke="none">
<path d="M5580 6757 c-81 -35 -228 -110 -315 -162 -42 -25 -78 -45 -81 -45 -2
0 -33 -18 -69 -40 -36 -22 -68 -40 -71 -40 -2 0 -10 -5 -17 -10 -17 -15 -297
-180 -304 -180 -4 0 -14 -6 -22 -14 -9 -7 -36 -25 -61 -38 -25 -14 -103 -60
-175 -103 -142 -85 -161 -96 -250 -145 -33 -18 -76 -43 -95 -55 -62 -40 -219
-125 -230 -125 -5 0 -10 -4 -10 -10 0 -5 -6 -10 -12 -10 -7 0 -47 -17 -88 -39
-160 -81 -286 -108 -374 -78 -26 9 -92 46 -147 82 -55 36 -104 65 -109 65 -6
0 -10 5 -10 10 0 6 -5 10 -11 10 -6 0 -23 8 -37 19 -15 10 -130 78 -257 150
-126 72 -237 135 -245 141 -14 9 -53 29 -180 95 -30 16 -67 37 -82 47 -16 11
-28 16 -28 12 0 -3 -6 -2 -13 4 -21 17 -398 202 -412 202 -2 0 -16 5 -32 12
-47 19 -138 42 -213 53 -68 11 -317 14 -385 5 -78 -10 -155 -24 -195 -35 -3
-1 -18 -5 -35 -9 -16 -4 -39 -11 -50 -16 -11 -5 -45 -16 -75 -26 -30 -10 -62
-23 -70 -30 -8 -6 -25 -15 -36 -18 -19 -6 -97 -47 -149 -79 -55 -33 -167 -123
-226 -179 -132 -128 -207 -236 -317 -457 l-78 -156 -3 -305 c-7 -614 -6 -2357
1 -2420 12 -96 18 -123 34 -147 12 -19 293 -213 308 -213 3 0 25 -13 49 -30
25 -16 50 -30 55 -30 6 0 17 -6 24 -13 17 -16 227 -137 239 -137 5 0 9 -4 9
-8 0 -4 19 -18 42 -30 24 -12 52 -28 62 -34 91 -59 166 -105 189 -117 15 -7
27 -17 27 -22 0 -5 4 -9 10 -9 20 0 105 -73 121 -104 18 -35 11 -77 -19 -111
-14 -17 -101 -89 -147 -123 -51 -37 -274 -172 -284 -172 -5 0 -18 -9 -31 -20
-13 -11 -29 -20 -37 -20 -7 0 -13 -4 -13 -10 0 -5 -4 -10 -9 -10 -4 0 -41 -19
-80 -42 -39 -24 -79 -47 -89 -53 -59 -34 -232 -142 -258 -162 -17 -13 -36 -23
-42 -23 -7 0 -12 -3 -12 -7 0 -5 -25 -25 -55 -47 -29 -21 -56 -45 -60 -54 -9
-25 39 -76 132 -138 106 -71 115 -77 173 -109 25 -14 72 -41 105 -60 33 -20
67 -39 75 -42 8 -4 17 -9 20 -12 4 -5 35 -23 95 -55 11 -6 22 -13 25 -16 3 -3
25 -16 50 -29 25 -13 52 -29 60 -36 8 -7 22 -15 30 -18 8 -4 38 -20 65 -36 85
-51 270 -150 279 -150 5 1 12 -3 15 -8 6 -10 118 -57 123 -52 2 1 14 -3 27
-10 27 -15 121 -22 136 -11 6 4 23 10 39 14 47 12 436 207 464 234 7 6 17 12
22 12 5 0 64 31 131 70 66 38 123 70 125 70 2 0 28 16 58 35 30 19 57 35 59
35 3 0 78 43 168 96 90 53 184 107 209 121 25 13 63 35 85 47 194 111 416 233
545 298 124 64 161 78 185 73 34 -6 213 -94 370 -180 173 -96 259 -144 275
-155 8 -5 38 -22 65 -38 105 -60 133 -76 255 -147 69 -39 150 -85 180 -101 30
-16 57 -31 60 -35 3 -3 28 -16 55 -29 28 -13 52 -26 55 -30 17 -20 390 -178
390 -165 0 2 18 -2 40 -10 22 -8 64 -18 93 -22 67 -10 467 -10 532 0 78 12 79
12 93 20 6 5 12 6 12 3 0 -6 88 24 155 53 131 57 284 147 365 216 68 57 219
214 251 262 18 26 35 50 38 53 19 17 123 223 148 295 60 167 65 215 89 780 10
225 10 1611 0 1790 -15 288 -21 338 -44 378 -9 15 -24 29 -32 32 -9 3 -25 13
-36 23 -19 18 -216 143 -244 155 -8 4 -33 18 -55 32 -22 14 -47 28 -55 32 -8
4 -36 19 -61 34 -26 15 -73 42 -105 60 -33 18 -77 43 -99 56 -22 13 -48 26
-57 30 -10 3 -18 9 -18 14 0 5 -4 9 -9 9 -13 0 -175 101 -179 111 -2 5 -8 9
-14 9 -11 0 -93 64 -122 95 -55 59 -65 107 -35 170 12 25 24 45 28 45 3 0 20
13 37 29 33 31 198 140 274 182 25 13 47 26 50 29 3 3 75 46 160 96 192 113
320 191 341 210 8 8 19 14 23 14 4 0 13 6 21 13 7 6 25 21 41 32 15 11 46 37
67 58 37 35 39 38 25 60 -9 12 -46 46 -84 75 -72 56 -408 282 -419 282 -3 0
-11 5 -18 10 -26 22 -307 192 -417 252 -36 20 -87 48 -115 64 -58 32 -128 68
-135 69 -3 0 -19 8 -36 18 -54 28 -103 30 -164 4z m-4016 -1722 c109 -57 274
-150 471 -265 17 -10 57 -33 90 -52 33 -19 156 -93 273 -164 117 -71 225 -136
240 -144 27 -16 31 -18 74 -51 47 -35 64 -88 74 -234 7 -85 6 -926 0 -1045
-14 -259 -18 -295 -32 -327 -9 -18 -19 -33 -23 -33 -3 0 -21 -13 -40 -29 -19
-16 -46 -35 -60 -43 -14 -7 -30 -19 -34 -26 -5 -7 -12 -10 -18 -7 -5 4 -9 2
-9 -4 0 -5 -9 -13 -20 -16 -11 -3 -26 -12 -32 -19 -25 -23 -462 -280 -643
-378 -251 -135 -316 -155 -360 -111 -47 48 -62 144 -71 463 -2 96 -5 191 -7
212 -1 20 1 34 5 32 5 -3 4 5 0 18 -10 28 -9 1419 1 1435 4 6 3 14 -3 18 -6 4
-8 11 -4 16 3 5 7 128 10 272 5 369 11 479 26 489 20 12 60 9 92 -7z m3994
-73 c34 -19 54 -78 60 -177 8 -134 7 -1780 -2 -2155 -12 -549 -19 -620 -64
-620 -30 0 -335 160 -570 299 -29 17 -54 31 -56 31 -8 0 -429 257 -514 313
-111 75 -108 68 -119 242 -11 167 -4 1459 8 1468 9 8 105 64 119 70 8 4 38 21
65 37 28 17 61 35 75 41 13 6 27 13 30 17 8 12 451 262 572 324 32 16 60 28
64 28 4 -1 10 2 13 7 3 5 31 20 61 33 134 57 207 69 258 42z"/>
</g>
</svg>
